<svg width="32" height="33" viewBox="0 0 32 33" fill="none" xmlns="http://www.w3.org/2000/svg">
<path fill-rule="evenodd" clip-rule="evenodd" d="M0.00012207 6.81212V0.992065C17.6659 0.992065 32.0001 15.3263 32.0001 32.9921H26.1801C26.1801 18.5345 14.4577 6.81212 0.00012207 6.81212ZM0.00012207 18.4522V12.6322C11.2495 12.6322 20.36 21.7427 20.36 32.9921H14.54C14.54 24.9715 8.02069 18.4522 0.00012207 18.4522ZM8.9667 28.5088C8.9667 30.9849 6.95947 32.9921 4.48341 32.9921C2.00736 32.9921 0.00012207 30.9849 0.00012207 28.5088C0.00012207 26.0327 2.00736 24.0255 4.48341 24.0255C6.95947 24.0255 8.9667 26.0327 8.9667 28.5088Z" fill="black"/>
</svg>
